<mxfile host="app.diagrams.net" agent="Mozilla/5.0 (Windows NT 10.0; Win64; x64) AppleWebKit/537.36 (KHTML, like Gecko) Chrome/138.0.0.0 Safari/537.36 OPR/122.0.0.0" version="28.2.5">
  <diagram name="Page-1" id="dCOYS_EmK8o0BA9RJVwB">
    <mxGraphModel grid="0" page="0" gridSize="10" guides="1" tooltips="1" connect="1" arrows="1" fold="1" pageScale="1" pageWidth="827" pageHeight="1169" math="0" shadow="0">
      <root>
        <mxCell id="0" />
        <mxCell id="1" parent="0" />
        <mxCell id="bbPRL8Z0iv0n-ZkUHsG4-40" style="edgeStyle=orthogonalEdgeStyle;rounded=0;orthogonalLoop=1;jettySize=auto;html=1;exitX=1;exitY=0.5;exitDx=0;exitDy=0;" edge="1" parent="1" source="BzM37wc21GzUYKBLxh6Y-238">
          <mxGeometry relative="1" as="geometry">
            <mxPoint x="698.6153846153848" y="224.61538461538453" as="targetPoint" />
          </mxGeometry>
        </mxCell>
        <mxCell id="BzM37wc21GzUYKBLxh6Y-238" value="Client" style="ellipse;whiteSpace=wrap;html=1;aspect=fixed;dashed=1;labelBackgroundColor=none;" vertex="1" parent="1">
          <mxGeometry x="402" y="170" width="110" height="110" as="geometry" />
        </mxCell>
        <mxCell id="BzM37wc21GzUYKBLxh6Y-242" value="Critère de recherche" style="text;html=1;align=center;verticalAlign=middle;resizable=0;points=[];autosize=1;strokeColor=none;fillColor=none;" vertex="1" parent="1">
          <mxGeometry x="539" y="195" width="130" height="30" as="geometry" />
        </mxCell>
        <mxCell id="BzM37wc21GzUYKBLxh6Y-244" value="Service financier" style="ellipse;whiteSpace=wrap;html=1;aspect=fixed;" vertex="1" parent="1">
          <mxGeometry x="418" y="498" width="110" height="110" as="geometry" />
        </mxCell>
        <mxCell id="BzM37wc21GzUYKBLxh6Y-250" value="" style="endArrow=classic;html=1;rounded=0;entryX=0.5;entryY=0;entryDx=0;entryDy=0;exitX=0.5;exitY=1;exitDx=0;exitDy=0;" edge="1" parent="1" source="BzM37wc21GzUYKBLxh6Y-238" target="BzM37wc21GzUYKBLxh6Y-244">
          <mxGeometry width="50" height="50" relative="1" as="geometry">
            <mxPoint x="1090.0416013999816" y="786.9965565768275" as="sourcePoint" />
            <mxPoint x="521.9999999999941" y="731.5999999999998" as="targetPoint" />
          </mxGeometry>
        </mxCell>
        <mxCell id="BzM37wc21GzUYKBLxh6Y-252" value="Organisateur du voyage" style="ellipse;whiteSpace=wrap;html=1;aspect=fixed;" vertex="1" parent="1">
          <mxGeometry x="186" y="675" width="110" height="110" as="geometry" />
        </mxCell>
        <mxCell id="BzM37wc21GzUYKBLxh6Y-253" value="Validation paiement" style="text;html=1;align=center;verticalAlign=middle;resizable=0;points=[];autosize=1;strokeColor=none;fillColor=none;" vertex="1" parent="1">
          <mxGeometry x="335" y="642" width="130" height="30" as="geometry" />
        </mxCell>
        <mxCell id="BzM37wc21GzUYKBLxh6Y-254" value="" style="endArrow=classic;html=1;rounded=0;entryX=1;entryY=0.5;entryDx=0;entryDy=0;exitX=0;exitY=0.636;exitDx=0;exitDy=0;exitPerimeter=0;" edge="1" parent="1" source="BzM37wc21GzUYKBLxh6Y-244" target="BzM37wc21GzUYKBLxh6Y-252">
          <mxGeometry width="50" height="50" relative="1" as="geometry">
            <mxPoint x="562" y="705" as="sourcePoint" />
            <mxPoint x="302" y="772.9999999999999" as="targetPoint" />
          </mxGeometry>
        </mxCell>
        <mxCell id="BzM37wc21GzUYKBLxh6Y-255" value="Documents de voyage" style="text;whiteSpace=wrap;html=1;" vertex="1" parent="1">
          <mxGeometry x="197" y="369" width="150" height="20" as="geometry" />
        </mxCell>
        <mxCell id="BzM37wc21GzUYKBLxh6Y-260" value="" style="endArrow=classic;html=1;rounded=0;exitX=0.626;exitY=0.018;exitDx=0;exitDy=0;exitPerimeter=0;" edge="1" parent="1" source="BzM37wc21GzUYKBLxh6Y-252">
          <mxGeometry width="50" height="50" relative="1" as="geometry">
            <mxPoint x="252" y="720" as="sourcePoint" />
            <mxPoint x="436" y="280" as="targetPoint" />
            <Array as="points">
              <mxPoint x="272" y="424" />
            </Array>
          </mxGeometry>
        </mxCell>
        <mxCell id="BzM37wc21GzUYKBLxh6Y-261" value="Assistance" style="ellipse;whiteSpace=wrap;html=1;aspect=fixed;" vertex="1" parent="1">
          <mxGeometry x="79" y="170" width="110" height="110" as="geometry" />
        </mxCell>
        <mxCell id="BzM37wc21GzUYKBLxh6Y-264" value="Demande + réponse/ Modification" style="text;html=1;align=center;verticalAlign=middle;resizable=0;points=[];autosize=1;strokeColor=none;fillColor=none;" vertex="1" parent="1">
          <mxGeometry x="194" y="233" width="198" height="26" as="geometry" />
        </mxCell>
        <mxCell id="bbPRL8Z0iv0n-ZkUHsG4-2" value="Transporteur&amp;nbsp;" style="ellipse;whiteSpace=wrap;html=1;aspect=fixed;dashed=1;" vertex="1" parent="1">
          <mxGeometry x="-69" y="396" width="113" height="113" as="geometry" />
        </mxCell>
        <mxCell id="bbPRL8Z0iv0n-ZkUHsG4-3" value="Hôtel" style="ellipse;whiteSpace=wrap;html=1;aspect=fixed;dashed=1;" vertex="1" parent="1">
          <mxGeometry x="696" y="691" width="113" height="113" as="geometry" />
        </mxCell>
        <mxCell id="bbPRL8Z0iv0n-ZkUHsG4-4" value="Accompagnateur" style="ellipse;whiteSpace=wrap;html=1;aspect=fixed;dashed=1;" vertex="1" parent="1">
          <mxGeometry x="-103" y="753.5" width="113" height="113" as="geometry" />
        </mxCell>
        <mxCell id="bbPRL8Z0iv0n-ZkUHsG4-5" value="" style="endArrow=classic;html=1;rounded=0;entryX=0.5;entryY=0;entryDx=0;entryDy=0;exitX=0.5;exitY=1;exitDx=0;exitDy=0;" edge="1" parent="1" source="bbPRL8Z0iv0n-ZkUHsG4-38" target="bbPRL8Z0iv0n-ZkUHsG4-3">
          <mxGeometry width="50" height="50" relative="1" as="geometry">
            <mxPoint x="1009.4000000000001" y="276.9200000000001" as="sourcePoint" />
            <mxPoint x="774.7352364907811" y="724.0275677049879" as="targetPoint" />
          </mxGeometry>
        </mxCell>
        <mxCell id="bbPRL8Z0iv0n-ZkUHsG4-6" value="Demande de blocage de chambre/&amp;nbsp;&lt;div&gt;Réservation temporaire&amp;nbsp;&lt;/div&gt;" style="text;html=1;align=center;verticalAlign=middle;resizable=0;points=[];autosize=1;strokeColor=none;fillColor=none;" vertex="1" parent="1">
          <mxGeometry x="650" y="505" width="205" height="41" as="geometry" />
        </mxCell>
        <mxCell id="bbPRL8Z0iv0n-ZkUHsG4-8" value="" style="endArrow=classic;html=1;rounded=0;entryX=1;entryY=1;entryDx=0;entryDy=0;exitX=0.233;exitY=0.033;exitDx=0;exitDy=0;exitPerimeter=0;" edge="1" parent="1" source="bbPRL8Z0iv0n-ZkUHsG4-3" target="BzM37wc21GzUYKBLxh6Y-238">
          <mxGeometry width="50" height="50" relative="1" as="geometry">
            <mxPoint x="736" y="729" as="sourcePoint" />
            <mxPoint x="740.8199999999997" y="453.4000000000001" as="targetPoint" />
          </mxGeometry>
        </mxCell>
        <mxCell id="bbPRL8Z0iv0n-ZkUHsG4-10" value="Confirmation ou refus de réservation" style="text;html=1;align=center;verticalAlign=middle;resizable=0;points=[];autosize=1;strokeColor=none;fillColor=none;" vertex="1" parent="1">
          <mxGeometry x="490" y="618" width="212" height="26" as="geometry" />
        </mxCell>
        <mxCell id="bbPRL8Z0iv0n-ZkUHsG4-11" value="" style="endArrow=classic;html=1;rounded=0;exitX=0.979;exitY=0.719;exitDx=0;exitDy=0;exitPerimeter=0;entryX=0;entryY=0.5;entryDx=0;entryDy=0;" edge="1" parent="1" source="BzM37wc21GzUYKBLxh6Y-252" target="bbPRL8Z0iv0n-ZkUHsG4-3">
          <mxGeometry width="50" height="50" relative="1" as="geometry">
            <mxPoint x="342" y="761" as="sourcePoint" />
            <mxPoint x="598" y="778" as="targetPoint" />
          </mxGeometry>
        </mxCell>
        <mxCell id="bbPRL8Z0iv0n-ZkUHsG4-12" value="Validation définitive" style="text;html=1;align=center;verticalAlign=middle;resizable=0;points=[];autosize=1;strokeColor=none;fillColor=none;" vertex="1" parent="1">
          <mxGeometry x="418" y="753.5" width="121" height="26" as="geometry" />
        </mxCell>
        <mxCell id="bbPRL8Z0iv0n-ZkUHsG4-22" value="&lt;span style=&quot;color: rgb(0, 0, 0); font-family: Helvetica; font-size: 12px; font-style: normal; font-variant-ligatures: normal; font-variant-caps: normal; font-weight: 400; letter-spacing: normal; orphans: 2; text-align: left; text-indent: 0px; text-transform: none; widows: 2; word-spacing: 0px; -webkit-text-stroke-width: 0px; white-space: normal; text-decoration-thickness: initial; text-decoration-style: initial; text-decoration-color: initial; float: none; display: inline !important;&quot;&gt;Paiement acompte / total&lt;/span&gt;" style="text;whiteSpace=wrap;html=1;" vertex="1" parent="1">
          <mxGeometry x="328" y="426.9985714285716" width="161" height="36" as="geometry" />
        </mxCell>
        <mxCell id="bbPRL8Z0iv0n-ZkUHsG4-23" value="" style="endArrow=classic;html=1;rounded=0;entryX=0.721;entryY=0.934;entryDx=0;entryDy=0;entryPerimeter=0;" edge="1" parent="1" target="bbPRL8Z0iv0n-ZkUHsG4-2">
          <mxGeometry width="50" height="50" relative="1" as="geometry">
            <mxPoint x="191" y="706.81" as="sourcePoint" />
            <mxPoint x="26.958999999999605" y="562.9959999999999" as="targetPoint" />
          </mxGeometry>
        </mxCell>
        <mxCell id="bbPRL8Z0iv0n-ZkUHsG4-24" value="Validation définitive, émission des titres de transports&amp;nbsp;" style="text;html=1;align=center;verticalAlign=middle;resizable=0;points=[];autosize=1;strokeColor=none;fillColor=none;" vertex="1" parent="1">
          <mxGeometry x="-98" y="618" width="303" height="26" as="geometry" />
        </mxCell>
        <mxCell id="bbPRL8Z0iv0n-ZkUHsG4-26" value="" style="endArrow=classic;html=1;rounded=0;entryX=1;entryY=0.5;entryDx=0;entryDy=0;exitX=0.012;exitY=0.661;exitDx=0;exitDy=0;exitPerimeter=0;" edge="1" parent="1" source="BzM37wc21GzUYKBLxh6Y-252" target="bbPRL8Z0iv0n-ZkUHsG4-4">
          <mxGeometry width="50" height="50" relative="1" as="geometry">
            <mxPoint x="338" y="1005" as="sourcePoint" />
            <mxPoint x="174" y="861" as="targetPoint" />
          </mxGeometry>
        </mxCell>
        <mxCell id="bbPRL8Z0iv0n-ZkUHsG4-27" value="Affectation du circuit/ itinéraire&amp;nbsp;" style="text;html=1;align=center;verticalAlign=middle;resizable=0;points=[];autosize=1;strokeColor=none;fillColor=none;" vertex="1" parent="1">
          <mxGeometry x="37" y="789.5" width="182" height="26" as="geometry" />
        </mxCell>
        <mxCell id="bbPRL8Z0iv0n-ZkUHsG4-28" value="" style="endArrow=classic;html=1;rounded=0;entryX=0.012;entryY=0.408;entryDx=0;entryDy=0;entryPerimeter=0;" edge="1" parent="1" target="BzM37wc21GzUYKBLxh6Y-252">
          <mxGeometry width="50" height="50" relative="1" as="geometry">
            <mxPoint x="4" y="788" as="sourcePoint" />
            <mxPoint x="54" y="738" as="targetPoint" />
          </mxGeometry>
        </mxCell>
        <mxCell id="bbPRL8Z0iv0n-ZkUHsG4-29" value="Disponibilité confirmée" style="text;html=1;align=center;verticalAlign=middle;resizable=0;points=[];autosize=1;strokeColor=none;fillColor=none;" vertex="1" parent="1">
          <mxGeometry x="-8" y="727.5" width="139" height="26" as="geometry" />
        </mxCell>
        <mxCell id="bbPRL8Z0iv0n-ZkUHsG4-34" value="" style="endArrow=classic;startArrow=classic;html=1;rounded=0;entryX=0;entryY=0.5;entryDx=0;entryDy=0;" edge="1" parent="1" target="BzM37wc21GzUYKBLxh6Y-238">
          <mxGeometry width="50" height="50" relative="1" as="geometry">
            <mxPoint x="188" y="225" as="sourcePoint" />
            <mxPoint x="243" y="193" as="targetPoint" />
          </mxGeometry>
        </mxCell>
        <mxCell id="bbPRL8Z0iv0n-ZkUHsG4-37" value="&lt;span style=&quot;text-align: left; text-wrap-mode: wrap; background-color: rgb(255, 255, 255);&quot;&gt;Confirmation ou rappel de paiement&lt;/span&gt;" style="text;html=1;align=center;verticalAlign=middle;resizable=0;points=[];autosize=1;strokeColor=none;fillColor=none;" vertex="1" parent="1">
          <mxGeometry x="422" y="357" width="209" height="26" as="geometry" />
        </mxCell>
        <mxCell id="bbPRL8Z0iv0n-ZkUHsG4-38" value="Vendeur" style="ellipse;whiteSpace=wrap;html=1;aspect=fixed;" vertex="1" parent="1">
          <mxGeometry x="704" y="166" width="118" height="118" as="geometry" />
        </mxCell>
        <mxCell id="bbPRL8Z0iv0n-ZkUHsG4-43" value="" style="endArrow=classic;html=1;rounded=0;" edge="1" parent="1" target="BzM37wc21GzUYKBLxh6Y-252">
          <mxGeometry width="50" height="50" relative="1" as="geometry">
            <mxPoint x="28" y="489" as="sourcePoint" />
            <mxPoint x="78" y="439" as="targetPoint" />
          </mxGeometry>
        </mxCell>
        <mxCell id="bbPRL8Z0iv0n-ZkUHsG4-44" value="Confirmation des billets" style="text;html=1;align=center;verticalAlign=middle;resizable=0;points=[];autosize=1;strokeColor=none;fillColor=none;" vertex="1" parent="1">
          <mxGeometry x="73" y="530" width="143" height="26" as="geometry" />
        </mxCell>
        <mxCell id="bbPRL8Z0iv0n-ZkUHsG4-48" value="" style="endArrow=classic;html=1;rounded=0;entryX=0.99;entryY=0.678;entryDx=0;entryDy=0;entryPerimeter=0;" edge="1" parent="1" target="BzM37wc21GzUYKBLxh6Y-238">
          <mxGeometry width="50" height="50" relative="1" as="geometry">
            <mxPoint x="702" y="245" as="sourcePoint" />
            <mxPoint x="657" y="235" as="targetPoint" />
          </mxGeometry>
        </mxCell>
        <mxCell id="bbPRL8Z0iv0n-ZkUHsG4-49" value="Envoie de devis" style="text;html=1;align=center;verticalAlign=middle;resizable=0;points=[];autosize=1;strokeColor=none;fillColor=none;" vertex="1" parent="1">
          <mxGeometry x="556" y="244" width="103" height="26" as="geometry" />
        </mxCell>
        <mxCell id="bbPRL8Z0iv0n-ZkUHsG4-54" value="" style="endArrow=classic;startArrow=classic;html=1;rounded=0;exitX=1;exitY=0;exitDx=0;exitDy=0;" edge="1" parent="1" source="BzM37wc21GzUYKBLxh6Y-244">
          <mxGeometry width="50" height="50" relative="1" as="geometry">
            <mxPoint x="677" y="325" as="sourcePoint" />
            <mxPoint x="727" y="275" as="targetPoint" />
            <Array as="points">
              <mxPoint x="723" y="365" />
            </Array>
          </mxGeometry>
        </mxCell>
        <mxCell id="bbPRL8Z0iv0n-ZkUHsG4-55" value="Confirmation/ informatioin&lt;div&gt;&amp;nbsp;sur la réservation&lt;/div&gt;" style="text;html=1;align=center;verticalAlign=middle;resizable=0;points=[];autosize=1;strokeColor=none;fillColor=none;" vertex="1" parent="1">
          <mxGeometry x="577" y="293" width="155" height="41" as="geometry" />
        </mxCell>
      </root>
    </mxGraphModel>
  </diagram>
</mxfile>
